<svg xmlns="http://www.w3.org/2000/svg" viewBox="0 0 64 64">
  <defs>
    <linearGradient id="g" x1="0%" y1="0%" x2="100%" y2="100%">
      <stop offset="0%" stop-color="#06b6d4"/>
      <stop offset="100%" stop-color="#8b5cf6"/>
    </linearGradient>
  </defs>
  <!-- DNA double helix -->
  <path d="M20 8 Q32 20 44 16 Q32 28 20 24 Q32 36 44 32 Q32 44 20 40 Q32 52 44 48 Q32 60 20 56" stroke="url(#g)" stroke-width="3" fill="none" stroke-linecap="round"/>
  <path d="M44 8 Q32 20 20 16 Q32 28 44 24 Q32 36 20 32 Q32 44 44 40 Q32 52 20 48 Q32 60 44 56" stroke="url(#g)" stroke-width="3" fill="none" stroke-linecap="round" opacity="0.5"/>
  <!-- Connecting rungs -->
  <line x1="24" y1="12" x2="40" y2="12" stroke="url(#g)" stroke-width="1.5" opacity="0.4"/>
  <line x1="22" y1="20" x2="42" y2="20" stroke="url(#g)" stroke-width="1.5" opacity="0.4"/>
  <line x1="24" y1="28" x2="40" y2="28" stroke="url(#g)" stroke-width="1.5" opacity="0.4"/>
  <line x1="22" y1="36" x2="42" y2="36" stroke="url(#g)" stroke-width="1.5" opacity="0.4"/>
  <line x1="24" y1="44" x2="40" y2="44" stroke="url(#g)" stroke-width="1.5" opacity="0.4"/>
  <line x1="22" y1="52" x2="42" y2="52" stroke="url(#g)" stroke-width="1.5" opacity="0.4"/>
</svg>